<svg id="Layer_1" enable-background="new 0 0 512 512" viewBox="0 0 512 512" xmlns="http://www.w3.org/2000/svg" xmlns:xlink="http://www.w3.org/1999/xlink"><linearGradient id="SVGID_1_" gradientUnits="userSpaceOnUse" x1="58.426" x2="451.75" y1="58.426" y2="451.75"><stop offset="0" stop-color="#8dbaf8"/><stop offset=".3342" stop-color="#6faefb"/><stop offset=".7653" stop-color="#4da0fe"/><stop offset="1" stop-color="#409bff"/></linearGradient><radialGradient id="SVGID_00000000185400130276653070000007584952602409319552_" cx="37.461" cy="45.499" gradientUnits="userSpaceOnUse" r="319.547"><stop offset="0" stop-color="#c2deff"/><stop offset="1" stop-color="#c2deff" stop-opacity="0"/></radialGradient><radialGradient id="SVGID_00000017508913542514497150000013062771508524660877_" cx="279.909" cy="193.246" fx="209.659" fy="186.16" gradientUnits="userSpaceOnUse" r="95.418"><stop offset="0" stop-color="#003ca1"/><stop offset=".1716" stop-color="#0543a8" stop-opacity=".828"/><stop offset=".4187" stop-color="#1156bb" stop-opacity=".581"/><stop offset=".7098" stop-color="#2675d9" stop-opacity=".29"/><stop offset="1" stop-color="#409bff" stop-opacity="0"/></radialGradient><radialGradient id="SVGID_00000176003781136089956000000004634017114731276476_" cx="266.745" cy="171.451" gradientUnits="userSpaceOnUse" r="58.472"><stop offset="0" stop-color="#4d95ff"/><stop offset=".1352" stop-color="#5e9fff" stop-opacity=".865"/><stop offset=".4031" stop-color="#8ab9ff" stop-opacity=".597"/><stop offset=".7746" stop-color="#d1e4ff" stop-opacity=".225"/><stop offset="1" stop-color="#fff" stop-opacity="0"/></radialGradient><radialGradient id="SVGID_00000134935027650874974950000001906132383807502467_" cx="-832.775" cy="-66.063" fx="-830.193" fy="-177.736" gradientTransform="matrix(1.288 0 0 .813 1363.274 445.394)" gradientUnits="userSpaceOnUse" r="129.065"><stop offset="0" stop-color="#003ca1"/><stop offset=".1715" stop-color="#0543a8" stop-opacity=".829"/><stop offset=".4284" stop-color="#1358bd" stop-opacity=".572"/><stop offset=".7371" stop-color="#2979dd" stop-opacity=".263"/><stop offset="1" stop-color="#409bff" stop-opacity="0"/></radialGradient><g><g><path d="m511.5 256c-1.54 85.47-16.55 154.21-59.58 195.92-41.71 43.03-110.45 58.04-195.92 59.58-85.47-1.54-154.21-16.55-195.92-59.58-43.03-41.71-58.04-110.45-59.58-195.92 1.54-85.47 16.55-154.21 59.58-195.92 41.71-43.03 110.45-58.04 195.92-59.58 85.47 1.54 154.21 16.55 195.92 59.58 43.03 41.71 58.04 110.45 59.58 195.92z" fill="url(#SVGID_1_)"/><path d="m511.5 256c-1.54 85.47-16.55 154.21-59.58 195.92-41.71 43.03-110.45 58.04-195.92 59.58-85.47-1.54-154.21-16.55-195.92-59.58-43.03-41.71-58.04-110.45-59.58-195.92 1.54-85.47 16.55-154.21 59.58-195.92 41.71-43.03 110.45-58.04 195.92-59.58 85.47 1.54 154.21 16.55 195.92 59.58 43.03 41.71 58.04 110.45 59.58 195.92z" fill="url(#SVGID_00000000185400130276653070000007584952602409319552_)"/></g><circle cx="282.25" cy="187.81" fill="url(#SVGID_00000017508913542514497150000013062771508524660877_)" r="108.48"/><g><g><circle cx="254.73" cy="160.29" fill="#fff" r="80.96"/><circle cx="254.73" cy="160.29" fill="url(#SVGID_00000176003781136089956000000004634017114731276476_)" r="80.96"/><circle cx="254.73" cy="160.29" fill="#fff" r="47.67"/></g></g><ellipse cx="291.46" cy="393.77" fill="url(#SVGID_00000134935027650874974950000001906132383807502467_)" rx="172.96" ry="109.18"/><path d="m393.5 373.19c0 23.53-19.07 42.61-42.61 42.61h-189.78c-23.53 0-42.61-19.07-42.61-42.61l.06-23.8c1.71-33.39 28.47-62.36 67.75-78.28 4.75-1.93 10.09-1.62 14.71.61 16.24 7.84 34.46 12.24 53.7 12.24 19.63 0 38.2-4.58 54.69-12.72 4.59-2.27 9.92-2.62 14.69-.74 40.14 15.79 67.61 45.12 69.33 78.96z" fill="#fff"/></g></svg>