<svg fill="none" height="25" viewBox="0 0 24 25" width="24" xmlns="http://www.w3.org/2000/svg" xmlns:xlink="http://www.w3.org/1999/xlink"><linearGradient id="paint0_linear_222_1627" gradientUnits="userSpaceOnUse" x1="12" x2="12" y1=".5" y2="24.5"><stop offset="0" stop-color="#fd7800"/><stop offset="1" stop-color="#ffc900"/></linearGradient><clipPath id="clip0_222_1627"><path d="m0 .5h24v24h-24z"/></clipPath><g clip-path="url(#clip0_222_1627)"><path d="m23.902 13.959c.059-.479.098-.964.098-1.459 0-5.348-3.519-9.888-8.362-11.433-.014-.006-.027-.011-.041-.015-1.136-.358-2.344-.552-3.597-.552-5.394 0-9.966 3.578-11.472 8.485-.005.017-.009.033-.013.05-.332 1.098-.515 2.26-.515 3.465 0 3.1 1.192 5.92 3.128 8.052.035.059.08.109.135.149 2.191 2.332 5.292 3.799 8.737 3.799 6.082 0 11.109-4.551 11.884-10.424.012-.039.016-.077.018-.117zm-11.902 9.541c-3.113 0-5.923-1.306-7.926-3.392.077-.765.269-3.094-.097-4.258-.181-.575-.572-.967-.917-1.312-.247-.247-.481-.48-.607-.751-.291-.619-.713-3.045-.94-4.602 1.41-4.45 5.577-7.685 10.487-7.685.831 0 1.637.1 2.415.276-.296.364-.531.771-.682 1.083-.582-.214-1.399-.457-1.854-.344-.754.188-1.539 1.158-2.285 2.193-.112.155-.269.47-.388.727-.563-.043-1.13.211-1.59.704-.451.483-.794 1.23-.543 1.808.154.351.491.553.927.553.458 0 .888-.251 1.344-.518.401-.234.816-.477 1.163-.482 1.807-.039 2.729.416 3.001.836.074.114.099.226.075.341-.363.068-1.392-.037-2.093-.108-1.182-.118-2.404-.241-3.117-.053-.885.233-1.4.843-2.292 2.21-.4.614-.289 1.895-.04 2.471.171.397.78 1.11 1.307 1.278.43.135.986.059 1.575-.022.444-.063 1.115-.154 1.309-.032.459.294.768 1.531.768 3.075-.006.083-.125.325-.195.47-.183.372-.371.758-.294 1.134.309 1.521 1.459 2.404 2.404 2.404.044 0 .087-.002.129-.006 1.382-.123 3.656-1.903 3.947-3.403.071-.369.038-.924.002-1.511-.033-.545-.07-1.163-.004-1.481s.589-1.27.938-1.842c.125-.206.087-.471-.093-.632-.313-.282-.808-.753-.929-.921-.114-.159-.304-.524-.493-.918.15.053.268.101.325.136.563.348 1.911 1.851 2.384 2.4.117.137.297.2.476.165.744-.146.84-.913.902-1.421.023-.183.065-.522.119-.584.408-.093.936.733 1.358 1.403.292.464.574.9.892 1.22-.782 5.303-5.351 9.391-10.868 9.391z" fill="url(#paint0_linear_222_1627)"/></g></svg>