<svg clip-rule="evenodd" fill-rule="evenodd" height="512" stroke-linejoin="round" stroke-miterlimit="2" viewBox="0 0 32 32" width="512" xmlns="http://www.w3.org/2000/svg" xmlns:xlink="http://www.w3.org/1999/xlink"><linearGradient id="_Linear1" gradientTransform="matrix(32 32 -32 32 48 144)" gradientUnits="userSpaceOnUse" x1="0" x2="1" y1="0" y2="0"><stop offset="0" stop-color="#b985de"/><stop offset="1" stop-color="#251ee5"/></linearGradient><g transform="translate(-48 -144)"><g id="SOLID-GRADIENT"><path d="m63.463 174.93c.001 0 .003 0 .004.001.346.085.707.086 1.053 0 .002 0 .004-.001.006-.001 3.587-.905 6.581-3.311 8.893-6.562 3.356-4.72 5.273-11.231 5.542-17.26.001-.003.001-.006.001-.01.022-.643-.239-1.265-.714-1.699-.474-.433-1.114-.637-1.751-.559-3.967.378-8.356-1.072-11.046-3.286-.844-.741-2.094-.735-2.92.007-2.668 2.2-7.058 3.655-11.043 3.289-.641-.074-1.272.129-1.74.557-.473.432-.733 1.051-.71 1.692 0 .002 0 .005.001.008.262 6.029 2.176 12.541 5.532 17.261 2.311 3.251 5.305 5.657 8.892 6.562zm-3.463-16.921c-.51.047-.99.27-1.356.635-.412.413-.644.973-.644 1.556v3.6c0 .583.232 1.143.644 1.556.413.412.973.644 1.556.644h7.6c.583 0 1.143-.232 1.556-.644.412-.413.644-.973.644-1.556v-3.6c0-.583-.232-1.143-.644-1.556-.366-.365-.846-.588-1.356-.635v-2.009c0-2.209-1.791-4-4-4s-4 1.791-4 4zm8 2.191v3.6c0 .053-.021.104-.059.141-.037.038-.088.059-.141.059h-7.6c-.053 0-.104-.021-.141-.059-.038-.037-.059-.088-.059-.141v-3.6c0-.053.021-.104.059-.141.037-.038.088-.059.141-.059h7.6c.053 0 .104.021.141.059.038.037.059.088.059.141zm-2-2.2v-2c0-1.105-.895-2-2-2s-2 .895-2 2v2z" fill="url(#_Linear1)"/></g></g></svg>