<svg id="Capa_1" enable-background="new 0 0 512 512" height="512" viewBox="0 0 512 512" width="512" xmlns="http://www.w3.org/2000/svg"><g><path d="m38.599 380.047h434.803c17.625-33.824 27.6-72.269 27.6-113.049 0-135.311-109.691-245.002-245.002-245.002s-245.002 109.691-245.002 245.002c0 40.78 9.976 79.225 27.601 113.049z" fill="#27a6ff"/><path d="m200.097 333.524c-25.667 13.223-68.209 40.474-68.209 75.858v68.881c31.713 18.671 67.994 30.406 106.768 33.118v-156.575c-14.876-3.337-28.169-10.855-38.559-21.282z" fill="#fea53d"/><path d="m402.45 322.615c-6.769-.553-10.37-3.179-18.347-7.677-16.363-9.227-32.955-16.481-50.709-21.628-6.079 30.537-29.776 54.705-60.049 61.497v156.576c36.566-2.558 70.916-13.14 101.308-29.997v-54.122c0-10.225 7.266-15.495 13.487-16.902 6.248-1.413 15.111.227 19.529 9.496 4.505 9.454 8.402 19.365 11.723 29.689 21.924-19.637 40.288-43.163 54.01-69.497-9.687-27.909-29.813-54.072-70.952-57.435z" fill="#fea53d"/><path d="m190.357 290.247c-22.283 5.142-42.539 13.457-62.46 24.69-7.977 4.498-11.578 7.124-18.347 7.677-41.14 3.363-61.265 29.527-70.952 57.433 21.458 41.182 54.269 75.5 94.289 98.807 0-22.677 0-47.883 0-68.472 0-50.667 87.238-84.667 87.238-84.667l-26.727-39.109c-.933 1.303-1.934 2.535-3.041 3.641z" fill="#fc753f"/><path d="m256 356.741c-6.105 0-12.039-.716-17.745-2.028v156.642c5.861.42 11.777.645 17.745.645s11.884-.225 17.745-.644v-156.643c-5.706 1.312-11.64 2.028-17.745 2.028z" fill="#ffc242"/><path d="m420.203 448.824c-3.557-11.018-7.535-20.804-11.632-29.4-8.421-17.67-34.919-11.737-34.919 7.837v54.682c16.815-9.223 32.43-20.359 46.551-33.119z" fill="#fc753f"/><path d="m177.077 277.818c0-.232.016-.46.018-.692-.135.088-.274.165-.406.259l-17.465 12.408c-5.212 3.703-6.435 10.929-2.732 16.141l48.1 67.701c3.703 5.212 10.929 6.435 16.141 2.732l17.465-12.408c2.842-2.019 4.487-5.086 4.805-8.302-37.401-6.2-65.926-38.68-65.926-77.839z" fill="#ffc242"/><path d="m352.776 289.794-17.465-12.408c-.132-.094-.271-.171-.406-.259.002.232.018.46.018.692 0 39.159-28.525 71.638-65.925 77.839.318 3.216 1.964 6.284 4.805 8.302l17.465 12.408c5.212 3.703 12.438 2.48 16.141-2.732l48.1-67.701c3.702-5.212 2.479-12.439-2.733-16.141z" fill="#fef156"/><path d="m256 0c-4.903 0-9.722.382-14.428 1.113-7.165 9.411-18.992 30.956-.471 54.182 13.068 16.389 1.827 52.353-11.723 82.698h120.748v-43.868c-.001-51.769-42.357-94.125-94.126-94.125z" fill="#543e5b"/><path d="m242.1 55.296c-18.627-23.36-6.556-45.02.595-54.344-45.527 6.514-80.82 45.919-80.82 93.174v43.869h68.502c13.55-30.346 24.792-66.31 11.723-82.699z" fill="#45314d"/><path d="m355.256 132.111c-4.103-3.76-13.276-1.854-16.81.448.774 4.821.818 9.753.149 14.623l-4.17 30.372c0 2.448-.077 4.85-.219 7.211 10.169 3.067 16.22-6.062 17.071-12.327.366-2.697.965-5.355 1.796-7.949 2.705-8.447 12.463-22.957 2.183-32.378z" fill="#ffaa7b"/><path d="m156.744 132.111c4.103-3.76 13.276-1.854 16.81.448-.774 4.821-.818 9.753-.149 14.623l4.17 30.372c0 2.448.077 4.85.219 7.211-10.169 3.067-16.22-6.062-17.071-12.327-.366-2.697-.965-5.355-1.796-7.949-2.705-8.447-12.463-22.957-2.183-32.378z" fill="#fc9460"/><path d="m336.936 123.176c-.938-2.449-2.122-4.929-3.613-7.268-2.525-3.961-3.636-8.647-3.297-13.32.973-13.438.451-39.721-17.19-47.659-14.987-6.744-33.372-2.839-45.096 1.059-7.614 2.532-15.866 2.532-23.48 0-1.094-.364-2.246-.727-3.447-1.083-11.146 10.965-11.378 32.045-10.529 43.588.344 4.687-.809 9.374-3.342 13.348-1.46 2.29-2.627 4.714-3.562 7.113-3.03 7.784-3.913 16.225-2.778 24.49l4.216 30.706c0 44.145 23.565 74.15 43.61 89.716 4.475 3.475 9.406 6.252 14.617 8.313 3.238-1.661 6.335-3.615 9.237-5.868 19.831-15.4 43.145-45.085 43.145-88.759l4.17-30.372c1.111-8.095.268-16.364-2.661-24.004z" fill="#ffc7ab"/><g><path d="m268.596 262.813c-19.831-15.4-43.144-45.085-43.144-88.759l-4.171-30.379c-1.123-8.177-.249-16.529 2.749-24.229.924-2.374 2.079-4.772 3.524-7.038 2.506-3.932 3.647-8.569 3.306-13.206-.86-11.699-.605-33.307 11.24-43.906-11.739-3.632-28.84-6.71-42.937-.367-17.692 7.961-18.166 34.371-17.181 47.774.341 4.637-.801 9.275-3.307 13.206-1.444 2.266-2.6 4.664-3.524 7.038-2.997 7.701-3.871 16.052-2.749 24.229l4.171 30.379c0 43.674 23.314 73.359 43.145 88.759 10.351 8.038 23.125 12.404 36.281 12.404 9.947 0 19.675-2.5 28.303-7.192-5.616-2.078-10.922-4.998-15.706-8.713z" fill="#ffaa7b"/></g><path d="m335.207 217.312c10.009-21.247 1.564-49.557 1.564-49.557h-1.564c-9.515 0-17.362 7.391-17.994 16.885-.985 14.792-4.114 35.37-13.633 44.889-11.181 11.181-26.494 3.543-34.438-1.83-3.877-2.622-8.445-4.013-13.124-4.013h-.018-.01c-4.684 0-9.257 1.393-13.137 4.017-2.198 1.486-4.961 3.144-8.042 4.53-1.932 6.627-6.535 29.899 17.013 47.841 11.196 8.529 6.235 19.477-.044 33.338-6.088 13.439-13.431 29.676-3.782 45.896 17.26 1.493 35.624-1.982 46.658-9.86 72.14-51.507 31.408-112.724 40.551-132.136z" fill="#543e5b"/><path d="m252.959 278.583c-26.711-20.351-15.867-47.342-15.81-47.482-8.334 4.308-19.837 7.32-28.729-1.572-9.519-9.519-12.648-30.098-13.633-44.889-.633-9.494-10.042-16.885-19.558-16.885 0 0-8.445 28.309 1.563 49.557 9.144 19.412-32.015 81.231 40.552 132.135 8.563 6.007 20.57 9.273 32.949 10.026-20.267-31.189 27.59-61.9 2.666-80.89z" fill="#45314d"/><path d="m256 188.839v6.18c0 7.402 5.147 15.933 12.375 17.529l3.905.862c16.132 3.561 29.409 14.964 35.365 30.374 1.766 4.569 8.56 3.215 8.44-1.681l-.333-15.698c-.404-16.495-11.961-34.857-28.053-38.506l-21.861-6.423c-4.915-1.444-9.838 2.241-9.838 7.363z" fill="#543e5b"/><path d="m220.068 205.503c1.515 4.625 4.908 8.288 10.098 10.909-.028.068-.056.148-.084.219 3.066-1.383 6.286-2.48 9.639-3.22l3.905-.862c7.227-1.596 12.374-10.128 12.374-17.529v-6.18c0-5.122-4.923-8.807-9.837-7.363l-21.861 6.423c-.833.189-1.651.427-2.459.692-1.447 3.088-4.02 10.054-1.775 16.911z" fill="#543e5b"/><path d="m196.249 226.405-.333 15.698c-.12 4.896 6.674 6.25 8.439 1.681 5.063-13.098 15.424-23.281 28.323-28.234.01-.017.017-.027.017-.027-19.725-8.438-8.394-27.624-8.394-27.624-16.091 3.649-27.648 22.011-28.052 38.506z" fill="#45314d"/><path d="m177.306 451.715h-35.633c-11.772 0-21.404-9.632-21.404-21.404 0-11.772 9.632-21.404 21.404-21.404h35.633c11.772 0 21.404 9.632 21.404 21.404 0 11.772-9.632 21.404-21.404 21.404z" fill="#e8f8fc"/></g></svg>