<svg id="Capa_1" enable-background="new 0 0 512 512" height="512" viewBox="0 0 512 512" width="512" xmlns="http://www.w3.org/2000/svg" xmlns:xlink="http://www.w3.org/1999/xlink"><linearGradient id="SVGID_1_" gradientUnits="userSpaceOnUse" x1="74.98" x2="437.018" y1="437.019" y2="74.98"><stop offset="0" stop-color="#ff2f2b"/><stop offset="1" stop-color="#ff9ceb"/></linearGradient><radialGradient id="SVGID_2_" cx="228.619" cy="314.816" gradientUnits="userSpaceOnUse" r="324.794"><stop offset="0" stop-color="#ff2f2b"/><stop offset=".0841" stop-color="#ff4755" stop-opacity=".916"/><stop offset=".1787" stop-color="#ff5d7d" stop-opacity=".821"/><stop offset=".2798" stop-color="#ff719f" stop-opacity=".72"/><stop offset=".387" stop-color="#ff81bb" stop-opacity=".613"/><stop offset=".5022" stop-color="#ff8dd0" stop-opacity=".498"/><stop offset=".6294" stop-color="#ff95df" stop-opacity=".371"/><stop offset=".7781" stop-color="#ff9ae8" stop-opacity=".222"/><stop offset="1" stop-color="#ff9ceb" stop-opacity="0"/></radialGradient><linearGradient id="lg1"><stop offset="0" stop-color="#ff4747"/><stop offset="1" stop-color="#ff9ceb"/></linearGradient><linearGradient id="SVGID_3_" gradientUnits="userSpaceOnUse" x1="-128.527" x2="435.465" xlink:href="#lg1" y1="672.736" y2="108.744"/><linearGradient id="lg2"><stop offset="0" stop-color="#ffb5d3"/><stop offset=".2475" stop-color="#ffcae0"/><stop offset=".7406" stop-color="#fff0f6"/><stop offset="1" stop-color="#fff"/></linearGradient><linearGradient id="SVGID_4_" gradientUnits="userSpaceOnUse" x1="71.899" x2="631.791" xlink:href="#lg2" y1="450.636" y2="-109.256"/><linearGradient id="SVGID_5_" gradientUnits="userSpaceOnUse" x1="-4.583" x2="562.594" xlink:href="#lg2" y1="523.669" y2="-43.508"/><linearGradient id="SVGID_6_" gradientUnits="userSpaceOnUse" x1="-97.184" x2="253.043" xlink:href="#lg2" y1="564.649" y2="214.422"/><linearGradient id="SVGID_7_" gradientUnits="userSpaceOnUse" x1="-284.956" x2="261.025" xlink:href="#lg2" y1="756.146" y2="210.165"/><linearGradient id="SVGID_8_" gradientUnits="userSpaceOnUse" x1="54.265" x2="383.769" xlink:href="#lg2" y1="596.341" y2="266.837"/><linearGradient id="SVGID_9_" gradientUnits="userSpaceOnUse" x1="-342.867" x2="359.706" xlink:href="#lg2" y1="939.646" y2="237.073"/><linearGradient id="SVGID_10_" gradientUnits="userSpaceOnUse" x1="96.625" x2="219.057" xlink:href="#lg2" y1="388.011" y2="265.579"/><linearGradient id="SVGID_11_" gradientUnits="userSpaceOnUse" x1="73.293" x2="201.838" xlink:href="#lg2" y1="365.255" y2="236.71"/><linearGradient id="lg3"><stop offset="0" stop-color="#ff79a2"/><stop offset=".6553" stop-color="#ffb0cf"/><stop offset="1" stop-color="#ffc8e3"/></linearGradient><linearGradient id="SVGID_12_" gradientUnits="userSpaceOnUse" x1="134.706" x2="416.531" xlink:href="#lg3" y1="387.112" y2="105.287"/><linearGradient id="SVGID_13_" gradientUnits="userSpaceOnUse" x1="47.974" x2="370.699" xlink:href="#lg3" y1="401.159" y2="78.435"/><linearGradient id="SVGID_14_" gradientUnits="userSpaceOnUse" x1="20.361" x2="360.465" xlink:href="#lg2" y1="428.568" y2="88.465"/><linearGradient id="SVGID_15_" gradientUnits="userSpaceOnUse" x1="170.047" x2="321.42" xlink:href="#lg3" y1="278.733" y2="127.36"/><linearGradient id="SVGID_16_" gradientUnits="userSpaceOnUse" x1="170.047" x2="321.42" xlink:href="#lg1" y1="278.733" y2="127.36"/><linearGradient id="SVGID_17_" gradientUnits="userSpaceOnUse" x1="235.382" x2="322.51" xlink:href="#lg1" y1="213.417" y2="126.288"/><g><circle cx="256" cy="256" fill="url(#SVGID_1_)" r="256"/><circle cx="256" cy="256" fill="url(#SVGID_2_)" r="256"/><path d="m376.282 314.697c-1.113 79.089-67.854 148.22-146.53 148.125-78.67-.757-145.811-70.063-147.046-148.518-.825-78.497 66.211-145.036 146.815-145.619 80.608.165 147.451 66.88 146.761 146.012z" fill="url(#SVGID_3_)"/><path d="m134.181 249.139c-8.789 12.393-15.166 26.48-18.386 41.678 8.016 32.198 16.228 64.577 24.51 97.084 21.561 26.449 53.667 44.046 89.37 44.176 8.883-10.411 17.824-20.87 26.809-31.356-40.213-50.373-81.516-101.636-122.303-151.582z" fill="url(#SVGID_4_)"/><path d="m316.922 239.154c-21.37-24.209-52.646-39.777-87.43-39.723-39.33.048-74.222 20.024-95.311 49.707-3.685 11.202-5.666 23.125-5.619 35.517.389 63.107 53.017 116.603 116.237 116.691 3.943-.004 7.841-.217 11.685-.627 19.908-23.231 40.031-46.59 60.205-69.832.2-30.577.278-61.155.233-91.733z" fill="url(#SVGID_5_)"/><path d="m115.795 290.816c-1.64 7.736-2.475 15.759-2.402 23.998.241 27.406 10.428 52.804 26.912 73.086 3.898-3.855 7.806-7.726 11.724-11.611 3.709-3.679 6.326-8.277 7.672-13.294-10.334-24.131-20.677-48.177-30.938-72.074-4.324-.032-8.646-.067-12.968-.105z" fill="url(#SVGID_6_)"/><path d="m160.401 306.409c-.038-8.442-6.937-15.319-15.425-15.371-5.404-.036-10.809-.074-16.214-.116 1.619 27.495 13.168 52.619 30.938 72.074.702-2.62 1.063-5.352 1.038-8.132-.149-16.152-.261-32.303-.337-48.455z" fill="url(#SVGID_7_)"/><path d="m200.683 392.269c1.559 1.823 3.277 3.523 5.155 5.052 3.983 3.244 7.961 6.484 11.933 9.718 7.517 6.119 11.883 15.32 11.903 25.038 50.616.204 94.199-34.84 109.919-81.197-46.523 14.294-92.871 28.348-138.91 41.389z" fill="url(#SVGID_8_)"/><path d="m339.593 350.88c3.795-11.306 5.912-23.312 6.001-35.755.218-29.057-10.668-55.545-28.672-75.971-8.312-.021-16.623-.038-24.935-.052-16.976-.034-30.738 13.722-30.744 30.702-8.028.004-16.056.006-24.085.005-8.738 0-15.77 7.281-15.348 16.108.396 8.266 7.519 14.64 15.786 14.642 15.56.005 31.12-.022 46.68-.081 8.729-.029 15.735 7.197 15.283 15.997-.427 8.242-7.557 14.646-15.807 14.7-18.586.117-37.172.157-55.758.122-20.466-.027-36.961 16.544-36.599 37.055.151 8.831 3.59 17.251 9.287 23.916 13.626 5.845 28.509 9.098 44.116 9.078 38.883-.029 73.49-20.41 94.795-50.466z" fill="url(#SVGID_9_)"/><path d="m206.443 285.893c.005 4.241-3.429 7.67-7.671 7.657-4.243-.013-7.689-3.461-7.696-7.695-.008-4.235 3.428-7.66 7.674-7.654 4.245.008 7.689 3.451 7.693 7.692z" fill="url(#SVGID_10_)"/><path d="m191.05 255.18c0 4.235-3.439 7.669-7.686 7.663-4.245-.003-7.689-3.435-7.689-7.662-.001-4.226 3.445-7.659 7.69-7.663 4.246-.005 7.686 3.426 7.685 7.662z" fill="url(#SVGID_11_)"/><path d="m216.628 204.661c23.349 34.994 46.895 70.187 70.192 105.074 6.051 9.068 19.404 8.957 25.525-.157 23.552-35.075 47.105-69.895 70.216-103.954-55.311-.78-110.622-1.101-165.933-.963z" fill="url(#SVGID_12_)"/><path d="m398.584 151.696c1.134 53.52-43.727 97.151-98.906 97.353-55.191-.056-99.999-44.774-99.667-99.784.475-54.975 44.644-100.746 98.237-99.423 53.582 1.509 99.085 48.37 100.336 101.854z" fill="url(#SVGID_13_)"/><path d="m368.034 150.783c.637 37.482-30.21 67.682-68.402 67.619-38.197-.153-69.158-31.105-69.071-69.302.133-38.18 30.648-69.405 68.082-68.611 37.427.85 68.717 32.829 69.391 70.294z" fill="url(#SVGID_14_)"/><path d="m329.847 149.917c.195 16.835-13.428 30.307-30.361 30.175-16.935-.141-30.69-13.948-30.738-30.923-.043-16.973 13.515-30.647 30.298-30.371 16.783.279 30.602 14.288 30.801 31.119z" fill="url(#SVGID_15_)"/><path d="m329.847 149.917c.195 16.835-13.428 30.307-30.361 30.175-16.935-.141-30.69-13.948-30.738-30.923-.043-16.973 13.515-30.647 30.298-30.371 16.783.279 30.602 14.288 30.801 31.119z" fill="url(#SVGID_16_)"/><path d="m307.05 164.854c-16.912-.192-30.664-14.021-30.737-30.99-.009-1.88.157-3.717.47-5.5-5.002 5.432-8.063 12.747-8.036 20.806.048 16.977 13.804 30.784 30.738 30.923 15.053.122 27.49-10.53 29.92-24.715-5.52 5.918-13.481 9.581-22.355 9.476z" fill="url(#SVGID_17_)"/></g></svg>